# xmcd
#
# Track frame offsets:
#	150
#	2651
#	21633
#	40895
#	53161
#	69559
#	85401
#	98874
#	113169
#	125073
#	139308
#	152989
#	162891
#	174033
#	190346
#	208418
#
# Disc length: 2834 seconds
#
# Revision: 0
# Processed by: cddbd v1.5.1PL0 Copyright (c) Steve Scherf et al.
# Submitted via: dBpowerAMP V4.0
#
DISCID=e50b1010
DTITLE=Keak Da Sneak - Tha Mixtape vol. 2
DYEAR=1900
DGENRE=
TTITLE0=DJ Backside Intro
TTITLE1=All About the Benjamins Freestyle
TTITLE2=Snoop Song Freestyle
TTITLE3=Ball Baby Remix Freestyle
TTITLE4=New York New York Freestyle
TTITLE5=Original Song
TTITLE6=Go DJ Freestyle
TTITLE7=Bia Bia Freestyle
TTITLE8=White Tees Freestyle
TTITLE9=Get Back Freestyle
TTITLE10=Original Song2
TTITLE11=Disco Inferno Freestyle
TTITLE12=Juicy Freestyle
TTITLE13=Old School Bean Freestyle
TTITLE14=Original Freestyle
TTITLE15=DJ Backside Outro
EXTD=
EXTT0=
EXTT1=
EXTT2=
EXTT3=
EXTT4=
EXTT5=
EXTT6=
EXTT7=
EXTT8=
EXTT9=
EXTT10=
EXTT11=
EXTT12=
EXTT13=
EXTT14=
EXTT15=
PLAYORDER=
